<svg xmlns="http://www.w3.org/2000/svg" viewBox="0 0 389.28 335.89" style=""><defs><style>.cls-1,.cls-2{fill:none;stroke:#231f20;stroke-linecap:round;stroke-width:9px;}.cls-1{stroke-miterlimit:10;}.cls-2{stroke-linejoin:bevel;}</style></defs><title>Artboard 4</title><g id="Layer_2" data-name="Layer 2"><path class="cls-1 SnIQTTxX_0" d="M188.72,328.62V278H278.6c13.08-3.11,20-6.8,29.07-13.4,27.55-20.1,74.58-82.33,74.05-131.1-.51-47.32-42.5-105.5-72-122-8.42-4.71-19.43-7.13-29.08-7.13H188.72V241h77.83c13.13,0,23.44-8.12,32.92-17.21,23.25-22.29,44.46-67.31,44.92-90.46.4-19.82-16.17-54.33-36.91-74.92-10.88-10.8-23.39-19.74-38.72-19.74h-49L220.39,238"></path><path class="cls-1 SnIQTTxX_1" d="M221.72,278L221.72,328.62"></path></g><g id="Layer_1" data-name="Layer 1"><path class="cls-2 SnIQTTxX_2" d="M5.36,4.37c.36,99.63.36,223.71,0,323.47.92-2.25,0-.13,0,0,32.36-81.76,134.2-323.7,134.2-323.7"></path><path class="cls-1 SnIQTTxX_3" d="M37.72,4.37L37.72,247.63"></path><path class="cls-1 SnIQTTxX_4" d="M37.72,328.62C81.72,220,127.72,113,171.82,4.14"></path><path class="cls-1 SnIQTTxX_5" d="M110.44,152.68C129.72,212,151.72,270,171.25,327.84"></path><path class="cls-1 SnIQTTxX_6" d="M92.91,195.08C109.72,239,123.72,283,140.71,326.51"></path></g><style data-made-with="vivus-instant">.SnIQTTxX_0{stroke-dasharray:1430 1432;stroke-dashoffset:1431;animation:SnIQTTxX_draw_0 5500ms ease 0ms infinite,SnIQTTxX_fade 5500ms linear 0ms infinite;}.SnIQTTxX_1{stroke-dasharray:51 53;stroke-dashoffset:52;animation:SnIQTTxX_draw_1 5500ms ease 0ms infinite,SnIQTTxX_fade 5500ms linear 0ms infinite;}.SnIQTTxX_2{stroke-dasharray:677 679;stroke-dashoffset:678;animation:SnIQTTxX_draw_2 5500ms ease 0ms infinite,SnIQTTxX_fade 5500ms linear 0ms infinite;}.SnIQTTxX_3{stroke-dasharray:244 246;stroke-dashoffset:245;animation:SnIQTTxX_draw_3 5500ms ease 0ms infinite,SnIQTTxX_fade 5500ms linear 0ms infinite;}.SnIQTTxX_4{stroke-dasharray:352 354;stroke-dashoffset:353;animation:SnIQTTxX_draw_4 5500ms ease 0ms infinite,SnIQTTxX_fade 5500ms linear 0ms infinite;}.SnIQTTxX_5{stroke-dasharray:186 188;stroke-dashoffset:187;animation:SnIQTTxX_draw_5 5500ms ease 0ms infinite,SnIQTTxX_fade 5500ms linear 0ms infinite;}.SnIQTTxX_6{stroke-dasharray:140 142;stroke-dashoffset:141;animation:SnIQTTxX_draw_6 5500ms ease 0ms infinite,SnIQTTxX_fade 5500ms linear 0ms infinite;}@keyframes SnIQTTxX_draw{100%{stroke-dashoffset:0;}}@keyframes SnIQTTxX_fade{0%{stroke-opacity:1;}92.72727272727273%{stroke-opacity:1;}100%{stroke-opacity:0;}}@keyframes SnIQTTxX_draw_0{14.545454545454545%{stroke-dashoffset: 1431}74.54545454545455%{ stroke-dashoffset: 0;}100%{ stroke-dashoffset: 0;}}@keyframes SnIQTTxX_draw_1{14.545454545454545%{stroke-dashoffset: 52}74.54545454545455%{ stroke-dashoffset: 0;}100%{ stroke-dashoffset: 0;}}@keyframes SnIQTTxX_draw_2{14.545454545454545%{stroke-dashoffset: 678}74.54545454545455%{ stroke-dashoffset: 0;}100%{ stroke-dashoffset: 0;}}@keyframes SnIQTTxX_draw_3{14.545454545454545%{stroke-dashoffset: 245}74.54545454545455%{ stroke-dashoffset: 0;}100%{ stroke-dashoffset: 0;}}@keyframes SnIQTTxX_draw_4{14.545454545454545%{stroke-dashoffset: 353}74.54545454545455%{ stroke-dashoffset: 0;}100%{ stroke-dashoffset: 0;}}@keyframes SnIQTTxX_draw_5{14.545454545454545%{stroke-dashoffset: 187}74.54545454545455%{ stroke-dashoffset: 0;}100%{ stroke-dashoffset: 0;}}@keyframes SnIQTTxX_draw_6{14.545454545454545%{stroke-dashoffset: 141}74.54545454545455%{ stroke-dashoffset: 0;}100%{ stroke-dashoffset: 0;}}</style></svg>