<svg xmlns="http://www.w3.org/2000/svg" viewBox="0 0 389.28 335.89"><defs><style>.cls-1,.cls-2{fill:none;stroke:#231f20;stroke-linecap:round;stroke-width:9px;}.cls-1{stroke-miterlimit:10;}.cls-2{stroke-linejoin:bevel;}</style></defs><title>Artboard 4</title><g id="Layer_2" data-name="Layer 2"><path class="cls-1" d="M188.72,328.62V278H278.6c13.08-3.11,20-6.8,29.07-13.4,27.55-20.1,74.58-82.33,74.05-131.1-.51-47.32-42.5-105.5-72-122-8.42-4.71-19.43-7.13-29.08-7.13H188.72V241h77.83c13.13,0,23.44-8.12,32.92-17.21,23.25-22.29,44.46-67.31,44.92-90.46.4-19.82-16.17-54.33-36.91-74.92-10.88-10.8-23.39-19.74-38.72-19.74h-49L220.39,238"/><line class="cls-1" x1="221.72" y1="278" x2="221.72" y2="328.62"/></g><g id="Layer_1" data-name="Layer 1"><path class="cls-2" d="M5.36,4.37c.36,99.63.36,223.71,0,323.47.92-2.25,0-.13,0,0,32.36-81.76,134.2-323.7,134.2-323.7"/><line class="cls-1" x1="37.72" y1="4.37" x2="37.72" y2="247.63"/><path class="cls-1" d="M37.72,328.62C81.72,220,127.72,113,171.82,4.14"/><path class="cls-1" d="M110.44,152.68C129.72,212,151.72,270,171.25,327.84"/><path class="cls-1" d="M92.91,195.08C109.72,239,123.72,283,140.71,326.51"/></g></svg>